<?xml version="1.0" standalone="no"?>
<!DOCTYPE svg PUBLIC "-//W3C//DTD SVG 20010904//EN"
 "http://www.w3.org/TR/2001/REC-SVG-20010904/DTD/svg10.dtd">
<svg version="1.0" xmlns="http://www.w3.org/2000/svg"
 width="512.000000pt" height="512.000000pt" viewBox="0 0 512.000000 512.000000"
 preserveAspectRatio="xMidYMid meet">

<g transform="translate(0.000000,512.000000) scale(0.100000,-0.100000)"
fill="#000000" stroke="none">
<path d="M3437 5109 c-64 -15 -143 -57 -195 -104 -240 -216 -188 -606 100
-747 274 -135 600 34 650 336 37 226 -111 452 -336 512 -57 15 -161 17 -219 3z"/>
<path d="M824 4295 c-108 -23 -199 -86 -264 -181 -80 -115 -93 -288 -33 -417
42 -89 121 -168 210 -210 129 -60 302 -47 417 33 61 41 125 114 151 173 118
259 -35 554 -314 607 -67 12 -90 12 -167 -5z"/>
<path d="M3850 4131 c-125 -27 -236 -59 -278 -80 -39 -20 -132 -112 -132 -131
0 -6 10 -8 23 -5 28 6 175 25 190 25 7 -1 -89 -38 -213 -84 -218 -82 -225 -84
-260 -70 -19 7 -192 72 -384 144 -295 109 -358 130 -405 130 -58 0 -99 -18
-151 -65 -23 -20 -42 -23 -200 -34 -96 -7 -195 -14 -220 -17 -41 -5 -50 -2
-99 35 -60 46 -100 52 -131 21 -23 -23 -27 -78 -8 -101 18 -21 108 -94 133
-107 18 -9 227 2 427 22 l48 5 18 -42 c37 -81 49 -87 519 -263 357 -133 448
-164 490 -164 41 0 103 19 294 90 133 49 244 88 246 87 2 -2 -57 -44 -132 -93
-85 -56 -135 -95 -135 -106 0 -9 56 -284 124 -609 l125 -592 -91 -334 -92
-334 94 -627 c51 -345 97 -641 102 -658 13 -49 50 -96 101 -131 92 -62 209
-54 293 20 60 52 84 104 84 182 0 33 -38 313 -84 622 l-84 563 99 361 c54 199
100 363 101 364 7 6 108 15 108 10 0 -3 -18 -154 -40 -335 -22 -181 -40 -354
-40 -384 0 -30 41 -328 91 -662 80 -539 93 -614 116 -656 107 -197 405 -154
453 65 11 47 4 105 -77 653 l-90 600 53 375 c29 206 53 388 54 404 0 50 -249
1415 -271 1481 -69 212 -270 387 -492 429 -101 19 -171 18 -277 -4z"/>
<path d="M1492 3519 c-60 -23 -524 -314 -548 -342 -15 -18 -33 -46 -41 -64
-15 -38 -17 -138 -3 -179 15 -43 751 -1054 791 -1086 20 -16 56 -32 88 -38 33
-6 322 -10 761 -10 l706 0 108 -76 c59 -42 109 -74 110 -72 5 6 116 424 116
436 0 14 -129 107 -185 133 -37 17 -71 19 -412 19 l-372 0 -19 25 -19 24 -415
3 -415 3 -35 27 c-31 23 -355 448 -342 448 3 0 90 -75 195 -167 104 -93 206
-176 227 -185 33 -16 82 -18 482 -18 443 0 446 0 490 22 24 13 57 40 74 61 26
32 31 49 34 105 3 60 0 72 -26 113 -20 31 -45 53 -74 68 -43 20 -56 21 -436
21 l-392 0 -155 136 c-85 75 -155 138 -155 141 0 3 19 -6 43 -20 23 -13 92
-52 154 -86 l111 -62 101 3 102 3 -187 265 c-102 146 -196 276 -207 289 -53
57 -184 89 -255 60z"/>
<path d="M262 3379 c-84 -42 -125 -152 -85 -230 11 -19 292 -425 626 -900 525
-748 613 -869 650 -890 l42 -24 368 -3 367 -3 0 -378 0 -378 -70 -12 c-202
-33 -427 -142 -467 -226 -17 -35 -16 -35 11 -64 34 -35 145 -74 283 -98 142
-25 606 -25 748 0 230 41 322 89 300 157 -10 32 -90 95 -168 133 -94 46 -176
73 -287 94 l-90 17 0 378 0 378 309 0 310 0 178 -130 c98 -72 179 -126 181
-121 2 6 -9 90 -23 187 -15 97 -25 190 -23 206 4 26 -6 38 -109 128 l-114 100
-783 0 -782 0 -585 828 c-536 760 -588 829 -629 850 -56 28 -103 28 -158 1z"/>
</g>
</svg>
