<?xml version="1.0" standalone="no"?>
<!DOCTYPE svg PUBLIC "-//W3C//DTD SVG 20010904//EN"
 "http://www.w3.org/TR/2001/REC-SVG-20010904/DTD/svg10.dtd">
<svg version="1.0" xmlns="http://www.w3.org/2000/svg"
 width="512.000000pt" height="512.000000pt" viewBox="0 0 512.000000 512.000000"
 preserveAspectRatio="xMidYMid meet">

<g transform="translate(0.000000,512.000000) scale(0.100000,-0.100000)"
fill="#000000" stroke="none">
<path d="M2205 4564 c-38 -2 -159 -8 -268 -14 -937 -48 -1629 -199 -1843 -402
-96 -91 -94 -78 -94 -511 0 -413 0 -417 59 -471 30 -29 31 -33 31 -110 0 -175
98 -275 270 -276 l76 0 34 -52 c22 -32 54 -64 84 -83 l49 -30 184 -3 c148 -3
193 -1 230 12 l47 16 30 -34 c17 -18 51 -44 76 -57 44 -23 52 -24 270 -24 165
0 236 4 267 14 42 14 42 14 68 -17 14 -17 49 -42 77 -56 l52 -26 272 0 271 0
57 28 56 29 56 -29 57 -28 271 0 272 0 52 26 c28 14 63 39 77 56 26 31 26 31
68 17 31 -10 102 -14 267 -14 218 0 226 1 270 24 25 13 59 39 76 57 l30 34 47
-16 c37 -13 82 -15 230 -12 l184 3 49 30 c30 19 62 51 84 83 l34 52 76 0 c171
0 269 100 270 276 0 77 1 81 31 110 59 54 59 58 59 471 0 358 -1 379 -20 419
-123 252 -793 428 -1890 494 -171 11 -882 20 -1005 14z m815 -174 c833 -36
1502 -151 1813 -312 123 -64 117 -47 117 -348 l0 -257 -47 23 c-60 31 -149 32
-212 3 l-45 -20 -42 49 c-52 59 -136 102 -215 109 -112 11 -244 -31 -316 -99
l-31 -30 -54 54 c-66 68 -116 94 -207 110 -131 22 -262 -15 -373 -105 -48 -39
-59 -44 -66 -31 -5 8 -28 36 -52 61 -148 152 -408 160 -605 18 -33 -23 -73
-61 -90 -84 -16 -22 -32 -41 -35 -41 -3 0 -18 19 -35 41 -16 23 -57 61 -90 84
-197 142 -457 134 -605 -18 -24 -25 -47 -53 -52 -61 -7 -13 -18 -8 -66 31
-110 90 -244 127 -374 105 -87 -15 -147 -48 -211 -115 l-48 -50 -32 30 c-102
97 -298 130 -424 71 -26 -12 -72 -46 -101 -76 l-53 -54 -37 18 c-20 10 -66 20
-102 22 -54 3 -73 -1 -112 -21 l-48 -24 0 257 c0 301 -6 284 117 348 437 226
1613 360 2733 312z m-745 -880 c74 -34 130 -88 164 -160 l26 -55 3 -318 3
-317 -25 -25 -25 -25 -246 0 -246 0 -24 25 -25 24 0 348 c0 329 2 351 21 393
62 138 216 183 374 110z m820 15 c50 -20 96 -66 121 -120 24 -49 24 -54 24
-398 l0 -348 -25 -24 -24 -25 -246 0 -246 0 -25 25 -25 25 3 317 3 318 26 55
c73 153 266 235 414 175z m-1559 -46 c59 -28 113 -84 143 -148 25 -55 26 -62
29 -296 3 -162 0 -252 -8 -278 -17 -59 -46 -67 -250 -67 -204 0 -233 8 -249
67 -14 49 -14 502 -1 574 16 85 67 144 148 170 40 12 141 1 188 -22z m2284 0
c52 -29 87 -82 100 -148 13 -72 13 -525 -1 -574 -16 -59 -45 -67 -249 -67
-204 0 -233 8 -250 67 -8 26 -11 116 -8 278 3 234 4 241 29 295 30 63 59 96
116 134 75 50 190 56 263 15z m-2945 -33 c28 -13 64 -39 82 -57 59 -62 63 -85
63 -334 l0 -226 -25 -24 c-24 -24 -27 -25 -185 -25 -158 0 -161 1 -185 25
l-25 24 0 258 c0 248 1 259 23 298 45 80 155 107 252 61z m3555 2 c30 -15 53
-37 67 -63 22 -39 23 -50 23 -298 l0 -258 -25 -24 c-24 -24 -27 -25 -185 -25
-158 0 -161 1 -185 25 l-25 24 0 226 c0 249 4 272 63 334 73 76 184 101 267
59z m-4042 -131 c33 -33 41 -82 42 -234 l0 -133 -60 0 c-51 0 -65 4 -85 25
-24 23 -25 28 -25 177 0 182 8 204 68 194 20 -3 47 -16 60 -29z m4456 11 c13
-18 16 -53 16 -176 0 -149 -1 -154 -25 -177 -20 -21 -34 -25 -86 -25 l-61 0 3
159 c4 143 6 162 25 188 40 54 102 69 128 31z"/>
<path d="M781 2400 c-50 -11 -116 -43 -147 -71 -21 -19 -21 -19 -47 1 -44 35
-99 52 -162 52 -101 0 -180 -48 -228 -137 -18 -34 -22 -61 -25 -173 -3 -112
-7 -134 -22 -145 -9 -6 -27 -28 -39 -47 -20 -34 -21 -45 -21 -413 0 -424 -2
-413 73 -488 171 -171 652 -301 1372 -369 515 -49 1057 -61 1555 -35 999 52
1657 194 1867 404 75 75 73 64 73 488 0 368 -1 379 -21 413 -12 19 -30 41 -39
47 -15 11 -19 33 -22 145 -4 148 -16 184 -80 245 -86 83 -239 89 -335 13 -26
-20 -26 -20 -47 -1 -62 57 -176 87 -301 78 -104 -8 -163 -29 -220 -79 l-45
-40 -63 17 c-50 13 -95 16 -217 13 -155 -3 -155 -3 -218 -37 -35 -19 -79 -54
-98 -77 l-35 -43 -36 25 c-62 42 -105 49 -308 49 -214 0 -260 -10 -341 -71
l-45 -34 -38 30 c-72 58 -129 73 -302 78 -186 5 -279 -7 -341 -47 l-43 -28
-50 52 c-84 85 -123 99 -305 103 -122 3 -167 0 -217 -13 l-63 -17 -45 40 c-26
22 -67 48 -93 57 -56 19 -219 28 -281 15z m204 -171 c22 -6 52 -22 66 -35 l26
-25 -19 -39 c-28 -56 -38 -142 -38 -335 l0 -171 -29 -17 c-75 -44 -187 -42
-246 5 -55 43 -65 84 -65 288 0 205 7 243 49 284 54 51 162 71 256 45z m3328
0 c51 -14 104 -63 117 -107 5 -20 10 -120 10 -222 0 -204 -10 -245 -65 -288
-59 -47 -171 -49 -246 -5 l-29 17 0 176 c0 191 -10 273 -38 331 l-19 38 26 25
c14 13 42 29 61 34 47 14 137 14 183 1z m-3825 -42 c20 -18 22 -30 22 -109 0
-101 -14 -139 -60 -163 -40 -21 -63 -19 -86 6 -16 18 -19 37 -19 134 0 96 3
116 19 133 32 36 83 36 124 -1z m4267 2 c18 -17 20 -33 20 -133 0 -98 -3 -117
-19 -135 -23 -25 -46 -27 -86 -6 -46 24 -60 62 -60 163 0 79 2 91 23 109 12
11 29 23 37 26 23 8 63 -3 85 -24z m-3131 -62 c76 -43 81 -61 81 -317 0 -209
-2 -228 -22 -272 -81 -177 -334 -227 -445 -88 -41 52 -50 122 -46 364 4 243
10 268 82 311 38 23 50 25 176 25 121 0 139 -3 174 -23z m2215 2 c49 -29 68
-57 80 -112 14 -61 14 -407 1 -478 -26 -137 -164 -203 -316 -151 -62 22 -102
53 -142 112 -44 65 -54 135 -50 350 3 174 4 187 26 223 40 64 77 76 232 77
119 0 139 -2 169 -21z m-1449 -85 c19 -11 45 -35 57 -54 22 -32 23 -41 23
-256 0 -201 -2 -229 -21 -279 -25 -68 -94 -141 -164 -175 -105 -51 -295 -35
-368 30 l-32 28 -3 301 c-3 333 -1 349 60 393 46 32 80 37 253 35 141 -2 164
-4 195 -23z m767 3 c17 -9 42 -31 55 -49 23 -33 23 -34 23 -345 l0 -311 -25
-27 c-39 -42 -86 -57 -195 -62 -129 -6 -191 15 -269 90 -87 86 -96 122 -96
390 0 202 2 225 20 254 43 71 86 83 295 80 128 -2 166 -6 192 -20z m-2856
-292 c47 -27 134 -34 182 -16 24 9 25 8 35 -49 20 -111 85 -200 181 -250 76
-38 221 -43 304 -11 41 16 43 15 66 -33 30 -60 102 -130 169 -163 51 -24 68
-27 162 -28 124 0 193 18 269 70 l51 35 14 -33 c30 -73 107 -138 201 -171 66
-23 242 -32 317 -17 88 19 176 67 246 137 l62 62 63 -62 c106 -105 211 -146
372 -146 97 0 184 18 253 53 51 25 118 94 138 143 l14 34 50 -34 c80 -55 139
-71 265 -71 99 0 115 3 167 28 65 32 128 91 165 156 15 25 28 48 30 50 1 2 22
-3 45 -12 63 -22 127 -28 198 -16 150 24 255 128 282 279 10 57 11 58 35 49
48 -18 135 -11 180 16 l43 24 0 -334 0 -333 -31 -27 c-180 -151 -793 -279
-1609 -337 -230 -16 -1090 -16 -1320 0 -730 52 -1272 154 -1531 289 -116 60
-108 29 -115 411 -4 183 -5 332 -2 332 3 0 26 -11 49 -25z"/>
</g>
</svg>
