<?xml version="1.0" standalone="no"?>
<!DOCTYPE svg PUBLIC "-//W3C//DTD SVG 20010904//EN"
 "http://www.w3.org/TR/2001/REC-SVG-20010904/DTD/svg10.dtd">
<svg version="1.0" xmlns="http://www.w3.org/2000/svg"
 width="512.000000pt" height="512.000000pt" viewBox="0 0 512.000000 512.000000"
 preserveAspectRatio="xMidYMid meet">

<g transform="translate(0.000000,512.000000) scale(0.100000,-0.100000)"
fill="#000000" stroke="none">
<path d="M3158 4448 c-20 -11 -42 -31 -49 -44 -9 -17 -23 -25 -58 -29 -162
-20 -338 -89 -456 -178 -119 -89 -263 -260 -361 -425 -1 -2 -37 4 -80 13 -58
13 -106 16 -198 13 -105 -4 -135 -10 -223 -40 -139 -48 -241 -108 -341 -202
-192 -182 -289 -390 -299 -646 -7 -152 7 -214 95 -430 78 -194 86 -227 132
-575 66 -487 111 -675 210 -880 53 -108 172 -297 211 -332 37 -34 93 -53 154
-53 90 0 166 44 200 117 10 20 35 123 56 227 93 470 191 787 296 954 42 68 89
112 120 112 22 0 82 -61 118 -119 100 -165 214 -543 300 -994 31 -166 34 -175
80 -226 48 -53 106 -75 189 -69 90 5 128 34 216 166 142 212 224 420 275 697
13 73 42 267 65 431 22 165 45 317 51 339 6 22 37 105 69 185 105 265 124 360
101 521 -56 393 -326 700 -697 795 -230 58 -433 20 -664 -124 -90 -56 -126
-59 -191 -15 -24 16 -63 40 -86 53 -24 13 -43 29 -43 35 0 6 22 44 49 84 172
258 374 402 617 441 l69 11 25 -30 c48 -56 69 -61 288 -61 190 0 201 1 232 23
54 37 74 70 73 127 -1 38 -7 58 -28 86 -45 58 -70 64 -287 64 -178 0 -196 -2
-230 -22z m422 -113 c10 -12 10 -18 0 -30 -10 -12 -45 -15 -192 -15 -150 0
-180 2 -184 15 -4 8 -4 22 0 30 4 13 34 15 184 15 147 0 182 -3 192 -15z
m-1447 -666 c20 -5 37 -12 37 -15 0 -3 -18 -47 -40 -97 l-41 -92 -107 -1
c-127 -1 -182 -19 -298 -96 -209 -139 -314 -418 -240 -634 13 -38 44 -119 69
-179 68 -165 84 -232 127 -555 59 -431 101 -651 136 -707 16 -26 74 -32 91
-11 6 7 25 72 43 143 93 374 218 667 341 799 186 199 423 206 609 16 134 -136
231 -353 340 -759 27 -101 55 -190 61 -197 16 -20 63 -17 81 4 38 44 82 262
138 682 23 168 50 339 61 380 11 41 52 156 92 255 71 180 71 180 71 275 0 76
-6 110 -27 173 -68 196 -214 340 -405 397 -59 18 -91 22 -162 18 -80 -4 -97
-8 -175 -47 -47 -23 -142 -85 -211 -137 -164 -123 -160 -123 -308 -10 -61 46
-135 98 -163 116 l-53 31 15 36 c33 78 68 153 72 153 11 0 77 -39 154 -91 112
-77 129 -77 237 -4 201 137 358 186 526 165 351 -43 634 -313 702 -668 31
-160 17 -250 -75 -479 -82 -206 -96 -261 -126 -483 -98 -744 -149 -916 -361
-1216 -59 -84 -113 -101 -181 -57 -29 19 -30 22 -74 242 -107 534 -236 912
-360 1054 -72 83 -170 113 -244 75 -165 -87 -320 -478 -450 -1138 -20 -102
-43 -196 -51 -208 -20 -31 -77 -54 -112 -46 -38 9 -57 28 -112 109 -191 285
-242 452 -325 1075 -45 338 -52 371 -129 564 -87 217 -98 261 -98 370 2 401
300 744 697 805 65 10 167 5 228 -10z m-98 -319 c9 0 3 -30 -21 -107 -69 -215
-130 -500 -173 -798 -23 -163 -51 -426 -51 -488 -1 -107 -18 -48 -44 144 -31
242 -52 320 -143 549 -59 148 -66 171 -65 230 5 230 183 436 407 470 28 4 56
6 63 4 8 -2 19 -4 27 -4z m1200 -12 c109 -27 244 -138 299 -246 33 -65 56
-152 56 -213 0 -52 -14 -95 -93 -294 -70 -175 -88 -252 -127 -545 -43 -328
-62 -450 -70 -450 -3 0 -17 37 -30 83 -54 193 -143 400 -226 529 -186 289
-509 377 -762 208 -138 -92 -238 -234 -338 -480 -50 -122 -51 -120 -29 120 30
329 79 642 140 894 39 161 91 336 105 350 12 12 76 -31 239 -158 101 -79 130
-96 158 -96 45 0 53 5 194 116 241 188 327 221 484 182z"/>
</g>
</svg>
