<?xml version="1.0" standalone="no"?>
<!DOCTYPE svg PUBLIC "-//W3C//DTD SVG 20010904//EN"
 "http://www.w3.org/TR/2001/REC-SVG-20010904/DTD/svg10.dtd">
<svg version="1.0" xmlns="http://www.w3.org/2000/svg"
 width="512.000000pt" height="512.000000pt" viewBox="0 0 512.000000 512.000000"
 preserveAspectRatio="xMidYMid meet">

<g transform="translate(0.000000,512.000000) scale(0.100000,-0.100000)"
fill="#000000" stroke="none">
<path d="M1910 5104 c-19 -3 -73 -14 -119 -26 -363 -89 -647 -363 -758 -733
-25 -84 -27 -102 -27 -280 0 -178 2 -196 27 -280 53 -177 166 -364 296 -490
l41 -39 52 51 51 52 -70 78 c-178 198 -253 383 -253 628 0 242 77 438 240 609
126 132 258 212 425 257 65 18 107 22 225 22 165 0 250 -17 377 -77 112 -54
184 -107 327 -246 l132 -129 130 130 c179 180 293 252 473 301 61 17 105 21
221 21 177 0 256 -18 408 -94 56 -28 104 -50 105 -48 58 81 77 112 72 119 -3
5 -35 26 -70 45 -302 169 -670 178 -979 23 -106 -53 -146 -81 -266 -189 l-101
-90 -86 81 c-218 206 -428 297 -708 305 -71 2 -146 1 -165 -1z"/>
<path d="M4366 4771 l-49 -49 44 -51 c24 -28 47 -51 51 -51 11 0 108 80 108
89 0 11 -89 111 -99 111 -4 0 -29 -22 -55 -49z"/>
<path d="M3700 4736 c0 -73 1 -76 24 -76 13 0 43 -3 68 -6 l44 -6 15 71 c18
82 22 78 -82 87 l-69 7 0 -77z"/>
<path d="M4010 4705 c-5 -13 -18 -42 -29 -63 l-20 -40 58 -36 c152 -93 246
-247 276 -453 l7 -43 74 0 c41 0 74 4 74 9 0 5 -5 44 -11 87 -29 210 -154 407
-335 526 -69 45 -81 46 -94 13z"/>
<path d="M4560 4539 c-30 -16 -58 -33 -63 -38 -4 -4 6 -38 23 -75 101 -221 99
-508 -4 -730 -18 -40 -53 -102 -76 -137 -28 -42 -305 -327 -806 -829 l-764
-765 -538 538 -537 537 -53 -53 -52 -52 593 -592 592 -592 822 828 c691 696
830 841 877 913 169 259 216 570 131 863 -21 71 -79 215 -87 215 -2 0 -28 -14
-58 -31z"/>
<path d="M2500 4090 l0 -200 -200 0 -200 0 0 -375 0 -375 200 0 200 0 0 -200
0 -200 375 0 375 0 0 200 0 200 200 0 200 0 0 375 0 375 -200 0 -200 0 0 200
0 200 -375 0 -375 0 0 -200z m600 -150 l0 -200 200 0 200 0 0 -225 0 -225
-200 0 -200 0 0 -200 0 -200 -225 0 -225 0 0 200 0 200 -200 0 -200 0 0 225 0
225 200 0 200 0 0 200 0 200 225 0 225 0 0 -200z"/>
<path d="M1525 3200 l-50 -50 53 -53 52 -52 52 52 53 53 -50 50 c-27 27 -52
50 -55 50 -3 0 -28 -23 -55 -50z"/>
<path d="M1573 1869 c-189 -22 -443 -94 -631 -179 -87 -39 -93 -40 -200 -40
l-111 0 -3 98 -3 97 -312 3 -313 2 0 -75 0 -75 238 -2 237 -3 3 -573 2 -572
-240 0 -240 0 0 -75 0 -75 315 0 315 0 0 95 0 95 221 0 221 0 285 -90 c157
-50 288 -88 292 -85 13 8 43 127 34 135 -4 4 -138 49 -298 99 l-290 91 -232 0
-233 0 0 379 0 380 138 3 137 4 95 43 c284 129 613 198 830 174 52 -6 98 -9
101 -7 8 5 33 133 27 139 -2 2 -42 9 -88 14 -96 12 -192 12 -297 0z"/>
<path d="M2095 1744 c-14 -31 -25 -62 -25 -68 0 -6 27 -26 60 -45 114 -66 177
-143 266 -323 l38 -78 396 0 c237 0 410 -4 432 -10 68 -19 128 -119 112 -187
-11 -48 -45 -93 -85 -113 -37 -19 -61 -20 -569 -20 l-530 0 0 -75 0 -75 540 0
c515 0 542 1 593 20 71 27 128 77 162 143 l28 53 473 258 c260 142 496 265
525 273 84 25 202 14 281 -25 59 -29 107 -67 97 -76 -13 -13 -1957 -1220
-1970 -1223 -8 -2 -252 71 -542 162 -290 92 -530 164 -535 161 -12 -7 -46
-125 -39 -133 13 -13 1131 -362 1141 -356 12 7 888 552 1681 1046 264 164 483
302 487 306 4 3 -18 40 -50 81 -66 86 -160 155 -260 191 -92 33 -278 35 -362
3 -44 -17 -696 -366 -877 -470 l-42 -24 -21 48 c-26 61 -100 134 -165 164 -49
23 -58 23 -428 26 l-377 3 -21 42 c-49 98 -132 208 -196 261 -57 47 -168 116
-187 116 -3 0 -17 -25 -31 -56z"/>
<path d="M1635 1574 c-16 -2 -72 -11 -123 -20 -88 -15 -93 -18 -88 -38 3 -11
11 -45 17 -74 9 -37 16 -51 26 -48 44 17 246 38 315 32 l76 -6 13 70 c7 39 10
72 7 75 -7 7 -206 14 -243 9z"/>
<path d="M170 1465 l0 -76 73 3 72 3 3 73 3 72 -76 0 -75 0 0 -75z"/>
<path d="M1188 1468 c-32 -12 -58 -27 -58 -33 0 -14 45 -126 51 -127 8 -2 114
35 122 42 12 11 -28 135 -44 137 -8 1 -40 -8 -71 -19z"/>
<path d="M170 1165 l0 -76 73 3 72 3 3 73 3 72 -76 0 -75 0 0 -75z"/>
</g>
</svg>
